<?xml version="1.0" standalone="no"?>
<!DOCTYPE svg PUBLIC "-//W3C//DTD SVG 20010904//EN"
 "http://www.w3.org/TR/2001/REC-SVG-20010904/DTD/svg10.dtd">
<svg version="1.0" xmlns="http://www.w3.org/2000/svg"
 width="63.000000pt" height="63.000000pt" viewBox="0 0 63.000000 63.000000"
 preserveAspectRatio="xMidYMid meet">
<metadata>
Created by potrace 1.10, written by Peter Selinger 2001-2011
</metadata>
<g transform="translate(0.000000,63.000000) scale(0.050000,-0.050000)"
fill="#000000" stroke="none">
<path d="M459 1234 c-695 -197 -552 -1222 171 -1222 796 0 842 1180 49 1238
-75 6 -167 -1 -220 -16z m457 -155 c251 -164 323 -490 163 -734 -216 -331
-682 -331 -898 0 -309 471 264 1042 735 734z"/>
<path d="M799 518 c-53 -128 -216 -166 -334 -79 -48 36 -71 43 -88 26 -93 -93
221 -217 355 -139 158 92 236 198 169 233 -59 32 -74 26 -102 -41z"/>
</g>
</svg>
