<?xml version="1.0" standalone="no"?><!DOCTYPE svg PUBLIC "-//W3C//DTD SVG 1.1//EN" "http://www.w3.org/Graphics/SVG/1.1/DTD/svg11.dtd"><svg t="1693381585528" class="icon" viewBox="0 0 1024 1024" version="1.1" xmlns="http://www.w3.org/2000/svg" p-id="8400" xmlns:xlink="http://www.w3.org/1999/xlink" width="200" height="200"><path d="M58.514286 975.238095c-4.87619 0-9.752381 0-14.628572-4.87619-14.628571-9.752381-19.504762-24.380952-9.752381-39.009524 4.87619-4.87619 82.895238-141.409524 229.180953-126.780952 24.380952 0 48.761905 4.87619 78.019047 9.752381 141.409524 19.504762 341.333333 53.638095 482.742857-92.64762 73.142857-73.142857 107.27619-160.914286 107.276191-253.561904-4.87619-102.4-53.638095-199.92381-131.657143-268.190476-131.657143-117.028571-375.466667-136.533333-551.009524 29.257142-165.790476 160.914286-82.895238 360.838095-82.895238 370.590477 4.87619 14.628571 0 34.133333-14.628571 39.009523-14.628571 4.87619-34.133333 0-39.009524-14.628571 0-4.87619-102.4-248.685714 97.523809-433.980952 195.047619-190.171429 477.866667-160.914286 633.904762-29.257143 92.647619 78.019048 146.285714 195.047619 151.161905 312.07619 4.87619 112.152381-39.009524 214.552381-121.904762 297.447619C707.047619 931.352381 487.619048 897.219048 341.333333 877.714286c-29.257143-4.87619-53.638095-9.752381-78.019047-9.752381-112.152381-9.752381-175.542857 97.52381-175.542857 97.523809-9.752381 4.87619-19.504762 9.752381-29.257143 9.752381z" fill="#000000" p-id="8401"></path><path d="M331.580952 468.114286m-58.514285 0a58.514286 58.514286 0 1 0 117.028571 0 58.514286 58.514286 0 1 0-117.028571 0Z" fill="#000000" p-id="8402"></path><path d="M541.257143 468.114286m-58.514286 0a58.514286 58.514286 0 1 0 117.028572 0 58.514286 58.514286 0 1 0-117.028572 0Z" fill="#000000" p-id="8403"></path><path d="M750.933333 468.114286m-58.514285 0a58.514286 58.514286 0 1 0 117.028571 0 58.514286 58.514286 0 1 0-117.028571 0Z" fill="#000000" p-id="8404"></path></svg>