<?xml version="1.0" standalone="no"?>
<!DOCTYPE svg PUBLIC "-//W3C//DTD SVG 20010904//EN"
 "http://www.w3.org/TR/2001/REC-SVG-20010904/DTD/svg10.dtd">
<svg version="1.0" xmlns="http://www.w3.org/2000/svg"
 width="138.000000pt" height="120.000000pt" viewBox="0 0 138.000000 120.000000"
 preserveAspectRatio="xMidYMid meet">
<metadata>
Created by potrace 1.10, written by Peter Selinger 2001-2011
</metadata>
<g transform="translate(0.000000,120.000000) scale(0.100000,-0.100000)"
fill="#000000" stroke="none">
<path d="M223 1189 c1 -6 -18 -18 -43 -27 -27 -9 -64 -35 -95 -66 -83 -83 -85
-95 -85 -498 1 -342 7 -419 38 -450 7 -7 12 -17 12 -23 0 -20 64 -72 122 -99
l57 -26 451 0 c527 0 521 -1 608 87 28 30 52 63 52 73 0 11 9 25 20 32 19 12
20 24 20 405 0 333 -2 393 -14 393 -8 0 -20 16 -26 35 -14 44 -98 119 -153
138 -23 8 -41 20 -40 26 2 8 -123 11 -462 11 -339 0 -464 -3 -462 -11z m930
-113 c40 -17 83 -60 108 -108 18 -34 19 -63 19 -378 0 -318 -1 -343 -20 -379
-24 -48 -70 -92 -112 -108 -46 -16 -865 -18 -919 -1 -56 16 -105 68 -124 130
-20 67 -22 641 -3 714 14 51 64 109 112 130 46 20 892 20 939 0z"/>
<path d="M549 771 c-23 -19 -24 -23 -24 -180 0 -179 3 -186 63 -185 27 1 56
14 105 48 37 25 70 46 73 46 8 0 68 44 81 60 19 23 16 46 -9 74 -24 27 -234
156 -254 156 -7 0 -22 -9 -35 -19z"/>
</g>
</svg>
